<?xml version="1.0" standalone="no"?><svg xmlns="http://www.w3.org/2000/svg" viewBox="0 0 1440 320"><path fill="#4586ff" fill-opacity="1" d="M0,160L26.7,144C53.3,128,107,96,160,106.7C213.3,117,267,171,320,213.3C373.3,256,427,288,480,282.7C533.3,277,587,235,640,192C693.3,149,747,107,800,128C853.3,149,907,235,960,277.3C1013.3,320,1067,320,1120,314.7C1173.3,309,1227,299,1280,272C1333.3,245,1387,203,1413,181.3L1440,160L1440,0L1413.3,0C1386.7,0,1333,0,1280,0C1226.7,0,1173,0,1120,0C1066.7,0,1013,0,960,0C906.7,0,853,0,800,0C746.7,0,693,0,640,0C586.7,0,533,0,480,0C426.7,0,373,0,320,0C266.7,0,213,0,160,0C106.7,0,53,0,27,0L0,0Z"></path></svg>